<svg width="32" height="36" viewBox="0 0 32 36" fill="none" xmlns="http://www.w3.org/2000/svg">
<path d="M22.6658 2H9.33423C8.3915 2 7.74613 2.89375 8.09682 3.71375L9.3329 7H22.6671L23.9032 3.71375C24.2539 2.89375 23.6085 2 22.6658 2Z" fill="#252525"/>
<path d="M22.6667 10H9.33333C9.33333 10 0 18.2105 0 27.7895C0 33.2632 4 36 6.66667 36C9.33333 36 16 36 16 36C16 36 22.6667 36 25.3333 36C28 36 32 33.2632 32 27.7895C32 18.2105 22.6667 10 22.6667 10ZM17.3333 29.0183V31.2105H14.6667V29.0252C12.7053 28.6475 11.472 27.4104 11.4 25.6027H13.7093C13.82 26.5524 14.7533 27.1614 16.0987 27.1614C17.34 27.1614 18.2187 26.5442 18.2187 25.6588C18.2187 24.9117 17.6493 24.482 16.2493 24.1727L14.7627 23.8484C12.6827 23.4023 11.6613 22.2898 11.6613 20.504C11.6613 18.7073 12.82 17.4264 14.6667 17.0049V14.7895H17.3333V17.0008C19.1333 17.4141 20.336 18.6731 20.3947 20.374H18.148C18.0373 19.4489 17.1987 18.8318 16.044 18.8318C14.8493 18.8318 14.0587 19.3997 14.0587 20.2933C14.0587 21.0158 14.604 21.4304 15.9413 21.7219L17.3173 22.0229C19.612 22.5183 20.6 23.5337 20.6 25.3509C20.6 27.3078 19.376 28.6201 17.3333 29.0183Z" fill="#252525"/>
<path d="M20 4H12C12 1.79067 13.7907 0 16 0C18.2093 0 20 1.79067 20 4Z" fill="#252525"/>
</svg>
