<svg width="17" height="22" viewBox="0 0 17 22" fill="none" xmlns="http://www.w3.org/2000/svg">
<path d="M16.708 8.22082C16.8227 8.07044 16.9063 7.89831 16.954 7.71464C17.0016 7.53096 17.0124 7.33947 16.9857 7.1515C16.9589 6.96353 16.8951 6.78291 16.7982 6.62033C16.7012 6.45775 16.573 6.31651 16.4211 6.20498L15.8267 5.76848C15.6307 5.62465 15.4749 5.43194 15.3743 5.20909C15.2737 4.98624 15.2318 4.74084 15.2527 4.49676L15.3156 3.75608C15.3327 3.56629 15.312 3.37494 15.2545 3.19345C15.197 3.01196 15.104 2.84404 14.981 2.6997C14.8581 2.55537 14.7076 2.43757 14.5387 2.35333C14.3698 2.26909 14.1858 2.22014 13.9978 2.2094L13.2642 2.16816C13.0226 2.15423 12.7886 2.07728 12.5851 1.94478C12.3815 1.81228 12.2153 1.62874 12.1026 1.412L11.763 0.753805C11.6749 0.58594 11.5544 0.437684 11.4087 0.317829C11.2629 0.197975 11.0949 0.108963 10.9145 0.056072C10.7341 0.0031812 10.545 -0.012511 10.3586 0.00992613C10.1721 0.0323632 9.99192 0.0924726 9.82881 0.186689L9.1903 0.552736C8.97951 0.67353 8.74139 0.737018 8.49915 0.737018C8.25691 0.737018 8.01879 0.67353 7.808 0.552736L7.16949 0.186689C7.00605 0.0930073 6.82567 0.033502 6.63907 0.0117038C6.45247 -0.0100944 6.26344 0.00625856 6.0832 0.0597925C5.90297 0.113327 5.73519 0.202951 5.58983 0.323348C5.44446 0.443746 5.32448 0.592464 5.23699 0.760679L4.89736 1.41888C4.78465 1.63561 4.61846 1.81915 4.41492 1.95165C4.21138 2.08415 3.97744 2.1611 3.73582 2.17503L3.00221 2.21627C2.81419 2.22702 2.63023 2.27597 2.4613 2.3602C2.29237 2.44444 2.14193 2.56224 2.01895 2.70658C1.89598 2.85092 1.80298 3.01884 1.74551 3.20033C1.68804 3.38182 1.66727 3.57316 1.68444 3.76295L1.74727 4.50364C1.76818 4.74772 1.7263 4.99312 1.62572 5.21597C1.52514 5.43881 1.36928 5.63152 1.17329 5.77535L0.578939 6.21186C0.42705 6.32338 0.298817 6.46462 0.201836 6.6272C0.104855 6.78979 0.0410959 6.97041 0.0143354 7.15838C-0.0124251 7.34635 -0.00164337 7.53784 0.0460423 7.72151C0.0937279 7.90519 0.177348 8.07731 0.291951 8.2277L0.740264 8.81543C0.888241 9.00924 0.98415 9.23849 1.01867 9.48091C1.05319 9.72332 1.02514 9.97065 0.937251 10.1989L0.67064 10.8863C0.602485 11.0632 0.570096 11.2521 0.575388 11.4419C0.58068 11.6317 0.623547 11.8185 0.70145 11.9913C0.779354 12.164 0.890711 12.3192 1.02893 12.4476C1.16715 12.576 1.32942 12.675 1.50613 12.7388L2.19728 12.988C2.42548 13.0701 2.62878 13.2106 2.78739 13.3958C2.946 13.581 3.05453 13.8047 3.1024 14.0449L3.23486 14.698L1.47047 20.5014L4.26904 19.6147L6.01135 22L7.60252 16.7361C7.84069 16.9362 8.13755 17.0509 8.44685 17.0624C8.75616 17.0739 9.06054 16.9815 9.31257 16.7997L10.987 22L12.7293 19.6147L15.5278 20.5014L13.721 14.8922C13.7329 14.8526 13.7431 14.8148 13.7516 14.7736L13.8959 14.0449C13.9438 13.8047 14.0523 13.581 14.2109 13.3958C14.3695 13.2106 14.5728 13.0701 14.801 12.988L15.4922 12.7388C15.6689 12.675 15.8312 12.576 15.9694 12.4476C16.1076 12.3192 16.2189 12.164 16.2969 11.9913C16.3748 11.8185 16.4176 11.6317 16.4229 11.4419C16.4282 11.2521 16.3958 11.0632 16.3277 10.8863L16.0611 10.1989C15.9732 9.97065 15.9451 9.72332 15.9796 9.48091C16.0142 9.23849 16.1101 9.00924 16.258 8.81543L16.708 8.22082ZM3.65091 8.53359C3.65091 7.5632 3.93525 6.61459 4.46798 5.80774C5.00072 5.00089 5.75791 4.37202 6.64381 4.00067C7.52971 3.62931 8.50453 3.53215 9.445 3.72146C10.3855 3.91078 11.2493 4.37807 11.9274 5.06424C12.6054 5.75041 13.0672 6.62465 13.2542 7.5764C13.4413 8.52815 13.3453 9.51467 12.9783 10.4112C12.6114 11.3077 11.99 12.074 11.1927 12.6131C10.3954 13.1522 9.45804 13.44 8.49915 13.44C7.21373 13.4386 5.98134 12.9213 5.07242 12.0014C4.16349 11.0816 3.65226 9.83443 3.65091 8.53359V8.53359Z" fill="black"/>
</svg>
